<svg version="1.1" xmlns="http://www.w3.org/2000/svg" xmlns:xlink="http://www.w3.org/1999/xlink" x="0px" y="0px" viewBox="0 0 472.022 472.022" style="enable-background:new 0 0 472.022 472.022;" xml:space="preserve" width="100" height="100"><path style="fill:#FDCD74;" d="M284.011,159.349v-39.344h-96v39.344c-84.295,26.51-131.14,116.335-104.63,200.63s116.335,131.14,200.63,104.63c84.295-26.51,131.14-116.335,104.63-200.63C372.956,214.102,333.889,175.035,284.011,159.349zM236.011,432.005c-66.274,0-120-53.726-120-120s53.726-120,120-120s120,53.726,120,120S302.285,432.005,236.011,432.005z"/><path style="fill:#FDC05E;" d="M352.699,202.725c-5.031,14.19-10.938,28.054-17.688,41.512c37.461,54.623,23.549,129.272-31.074,166.733c-46.904,32.167-109.952,26.966-150.95-12.453c-14.302,4.559-28.871,8.236-43.624,11.008c53.797,70.008,154.161,83.149,224.168,29.352s83.149-154.161,29.352-224.168C359.688,210.55,356.289,206.55,352.699,202.725L352.699,202.725z"/></svg>