<svg enable-background="new 0 0 512 512" height="100" viewBox="0 0 512 512" width="100" xmlns="http://www.w3.org/2000/svg"><g><g><path d="m360.434 268.155c-4.204 0-7.611-3.407-7.611-7.611v-66.702c0-4.204 3.408-7.611 7.611-7.611 4.204 0 7.611 3.407 7.611 7.611v66.702c0 4.204-3.408 7.611-7.611 7.611z" fill="#ffd064"/></g><g><path d="m163.428 268.155c-4.204 0-7.611-3.407-7.611-7.611v-66.702c0-4.204 3.408-7.611 7.611-7.611 4.204 0 7.611 3.407 7.611 7.611v66.702c.001 4.204-3.407 7.611-7.611 7.611z" fill="#ffd064"/></g><g><path d="m360.434 168.832c-4.204 0-7.611-3.407-7.611-7.611v-55.105c0-4.204 3.408-7.611 7.611-7.611 11.422 0 22.077-4.533 30.001-12.764 7.92-8.227 12.042-19.06 11.607-30.506-.82-21.598-18.381-39.157-39.979-39.978-18.278-.677-34.724 10.404-40.863 27.619-4.608 12.921-16.884 21.602-30.546 21.602h-.14c-4.204 0-7.611-3.407-7.611-7.611s3.408-7.611 7.611-7.611h.14c7.242 0 13.756-4.618 16.208-11.493 8.384-23.508 30.823-38.677 55.779-37.716 29.504 1.12 53.492 25.108 54.613 54.612.593 15.617-5.037 30.406-15.853 41.641-9.038 9.387-20.677 15.253-33.356 16.931v47.992c0 4.201-3.408 7.609-7.611 7.609z" fill="#ffd064"/></g><g><path d="m163.428 168.832c-4.204 0-7.611-3.407-7.611-7.611v-55.105c0-4.204 3.408-7.611 7.611-7.611 11.422 0 22.077-4.533 30.002-12.764 7.92-8.227 12.042-19.06 11.607-30.506-.82-21.598-18.381-39.157-39.979-39.978-18.302-.679-34.725 10.403-40.864 27.619-4.608 12.921-16.883 21.602-30.545 21.602h-.14c-4.204 0-7.611-3.407-7.611-7.611s3.408-7.611 7.611-7.611h.14c7.242 0 13.756-4.618 16.207-11.493 8.384-23.508 30.822-38.692 55.78-37.716 29.504 1.12 53.492 25.108 54.613 54.612.593 15.617-5.037 30.406-15.853 41.641-9.038 9.387-20.677 15.253-33.357 16.931v47.992c.001 4.201-3.407 7.609-7.611 7.609z" fill="#ffd064"/></g><g><g><path d="m360.434 309.278h16.417s49.251 106.455 49.251 137.054c0 36.268-29.401 65.668-65.668 65.668s-65.668-29.401-65.668-65.668c0-30.599 49.251-137.054 49.251-137.054z" fill="#bed8fb"/></g><g><path d="m407.218 380.836c-1.159 55.564-44.1 100.849-98.677 105.715 12.014 15.477 30.783 25.449 51.893 25.449 36.268 0 65.668-29.4 65.668-65.668 0-12.902-8.756-39.289-18.884-65.496z" fill="#9dc6fb"/></g><g><circle cx="360.434" cy="177.941" fill="#ffe07d" r="32.834"/></g><g><path d="m373.746 147.928c1.808 4.07 2.82 8.572 2.82 13.312 0 18.134-14.7 32.834-32.834 32.834-4.74 0-9.242-1.013-13.312-2.821 5.108 11.499 16.62 19.522 30.014 19.522 18.134 0 32.834-14.7 32.834-32.834 0-13.393-8.024-24.905-19.522-30.013z" fill="#ffd064"/></g><g><path d="m376.851 276.444h-32.834c-9.067 0-16.417-7.35-16.417-16.417 0-9.067 7.35-16.417 16.417-16.417h32.834c9.067 0 16.417 7.35 16.417 16.417 0 9.067-7.35 16.417-16.417 16.417z" fill="#ffe07d"/></g><g><path d="m376.851 243.61h-20.705c9.067 0 16.417 7.35 16.417 16.417 0 9.067-7.35 16.417-16.417 16.417h20.705c9.067 0 16.417-7.35 16.417-16.417 0-9.067-7.35-16.417-16.417-16.417z" fill="#ffd064"/></g><g><path d="m376.851 309.278h-32.834c-9.067 0-16.417-7.35-16.417-16.417 0-9.067 7.35-16.417 16.417-16.417h32.834c9.067 0 16.417 7.35 16.417 16.417 0 9.067-7.35 16.417-16.417 16.417z" fill="#ffe07d"/></g><g><path d="m376.851 276.444h-20.705c9.067 0 16.417 7.35 16.417 16.417 0 9.067-7.35 16.417-16.417 16.417h20.705c9.067 0 16.417-7.35 16.417-16.417 0-9.067-7.35-16.417-16.417-16.417z" fill="#ffd064"/></g></g><g><g><path d="m163.429 309.278h16.417s49.251 106.455 49.251 137.054c0 36.268-29.401 65.668-65.668 65.668s-65.669-29.401-65.669-65.668c0-30.599 49.251-137.054 49.251-137.054z" fill="#bed8fb"/></g><g><path d="m210.213 380.836c-1.159 55.564-44.1 100.849-98.677 105.715 12.014 15.477 30.783 25.449 51.893 25.449 36.268 0 65.668-29.4 65.668-65.668 0-12.902-8.756-39.289-18.884-65.496z" fill="#9dc6fb"/></g><g><circle cx="163.429" cy="177.941" fill="#ffe07d" r="32.834"/></g><g><path d="m176.741 147.928c1.808 4.07 2.82 8.572 2.82 13.312 0 18.134-14.7 32.834-32.834 32.834-4.74 0-9.242-1.013-13.312-2.821 5.108 11.499 16.62 19.522 30.014 19.522 18.134 0 32.834-14.7 32.834-32.834 0-13.393-8.024-24.905-19.522-30.013z" fill="#ffd064"/></g><g><path d="m179.846 276.444h-32.834c-9.067 0-16.417-7.35-16.417-16.417 0-9.067 7.35-16.417 16.417-16.417h32.834c9.067 0 16.417 7.35 16.417 16.417 0 9.067-7.35 16.417-16.417 16.417z" fill="#ffe07d"/></g><g><path d="m179.846 243.61h-20.705c9.067 0 16.417 7.35 16.417 16.417 0 9.067-7.35 16.417-16.417 16.417h20.705c9.067 0 16.417-7.35 16.417-16.417 0-9.067-7.35-16.417-16.417-16.417z" fill="#ffd064"/></g><g><path d="m179.846 309.278h-32.834c-9.067 0-16.417-7.35-16.417-16.417 0-9.067 7.35-16.417 16.417-16.417h32.834c9.067 0 16.417 7.35 16.417 16.417 0 9.067-7.35 16.417-16.417 16.417z" fill="#ffe07d"/></g><g><path d="m179.846 276.444h-20.705c9.067 0 16.417 7.35 16.417 16.417 0 9.067-7.35 16.417-16.417 16.417h20.705c9.067 0 16.417-7.35 16.417-16.417 0-9.067-7.35-16.417-16.417-16.417z" fill="#ffd064"/></g></g></g></svg>